<mxfile host="app.diagrams.net" modified="2023-05-28T10:06:08.258Z" agent="Mozilla/5.0 (Windows NT 10.0; Win64; x64) AppleWebKit/537.36 (KHTML, like Gecko) Chrome/113.0.0.0 Safari/537.36" etag="tJ4aDvRnEjMGl97TQxOj" version="21.3.4" type="device">
  <diagram name="Page-1" id="tUm5_KNQMfu-EzpkYZKZ">
    <mxGraphModel dx="1050" dy="541" grid="1" gridSize="10" guides="1" tooltips="1" connect="1" arrows="1" fold="1" page="1" pageScale="1" pageWidth="1169" pageHeight="827" math="0" shadow="0">
      <root>
        <mxCell id="0" />
        <mxCell id="1" parent="0" />
        <mxCell id="PsXzmbZN0hnTAKAXfbtE-14" value="Alt2" style="shape=umlFrame;whiteSpace=wrap;html=1;fontSize=12;width=40;height=20;" parent="1" vertex="1">
          <mxGeometry x="220" y="500" width="570" height="200" as="geometry" />
        </mxCell>
        <mxCell id="PsXzmbZN0hnTAKAXfbtE-7" value="Alt1" style="shape=umlFrame;whiteSpace=wrap;html=1;width=40;height=20;" parent="1" vertex="1">
          <mxGeometry x="90" y="260" width="540" height="170" as="geometry" />
        </mxCell>
        <mxCell id="tmLtH-D-rDOSetYklQbw-5" value="" style="shape=umlLifeline;participant=umlEntity;perimeter=lifelinePerimeter;whiteSpace=wrap;html=1;container=1;collapsible=0;recursiveResize=0;verticalAlign=top;spacingTop=36;outlineConnect=0;" parent="1" vertex="1">
          <mxGeometry x="440" y="40" width="40" height="720" as="geometry" />
        </mxCell>
        <mxCell id="PsXzmbZN0hnTAKAXfbtE-24" value="" style="html=1;points=[];perimeter=orthogonalPerimeter;fontSize=12;" parent="tmLtH-D-rDOSetYklQbw-5" vertex="1">
          <mxGeometry x="15" y="200" width="10" height="140" as="geometry" />
        </mxCell>
        <mxCell id="tmLtH-D-rDOSetYklQbw-1" value="" style="shape=umlLifeline;participant=umlActor;perimeter=lifelinePerimeter;whiteSpace=wrap;html=1;container=1;collapsible=0;recursiveResize=0;verticalAlign=top;spacingTop=36;outlineConnect=0;" parent="1" vertex="1">
          <mxGeometry x="30" y="40" width="20" height="720" as="geometry" />
        </mxCell>
        <mxCell id="PsXzmbZN0hnTAKAXfbtE-21" value="" style="html=1;points=[];perimeter=orthogonalPerimeter;fontSize=12;" parent="tmLtH-D-rDOSetYklQbw-1" vertex="1">
          <mxGeometry x="5" y="80" width="10" height="600" as="geometry" />
        </mxCell>
        <mxCell id="tmLtH-D-rDOSetYklQbw-2" value="" style="shape=umlLifeline;participant=umlBoundary;perimeter=lifelinePerimeter;whiteSpace=wrap;html=1;container=1;collapsible=0;recursiveResize=0;verticalAlign=top;spacingTop=36;outlineConnect=0;" parent="1" vertex="1">
          <mxGeometry x="160" y="40" width="50" height="720" as="geometry" />
        </mxCell>
        <mxCell id="PsXzmbZN0hnTAKAXfbtE-22" value="" style="html=1;points=[];perimeter=orthogonalPerimeter;fontSize=12;" parent="tmLtH-D-rDOSetYklQbw-2" vertex="1">
          <mxGeometry x="20" y="80" width="10" height="260" as="geometry" />
        </mxCell>
        <mxCell id="tmLtH-D-rDOSetYklQbw-3" value="" style="shape=umlLifeline;participant=umlEntity;perimeter=lifelinePerimeter;whiteSpace=wrap;html=1;container=1;collapsible=0;recursiveResize=0;verticalAlign=top;spacingTop=36;outlineConnect=0;" parent="1" vertex="1">
          <mxGeometry x="300" y="40" width="40" height="720" as="geometry" />
        </mxCell>
        <mxCell id="PsXzmbZN0hnTAKAXfbtE-23" value="" style="html=1;points=[];perimeter=orthogonalPerimeter;fontSize=12;" parent="tmLtH-D-rDOSetYklQbw-3" vertex="1">
          <mxGeometry x="15" y="80" width="10" height="440" as="geometry" />
        </mxCell>
        <mxCell id="tmLtH-D-rDOSetYklQbw-4" value="" style="shape=umlLifeline;participant=umlBoundary;perimeter=lifelinePerimeter;whiteSpace=wrap;html=1;container=1;collapsible=0;recursiveResize=0;verticalAlign=top;spacingTop=36;outlineConnect=0;" parent="1" vertex="1">
          <mxGeometry x="585" y="40" width="50" height="720" as="geometry" />
        </mxCell>
        <mxCell id="PsXzmbZN0hnTAKAXfbtE-25" value="" style="html=1;points=[];perimeter=orthogonalPerimeter;fontSize=12;" parent="tmLtH-D-rDOSetYklQbw-4" vertex="1">
          <mxGeometry x="20" y="260" width="10" height="380" as="geometry" />
        </mxCell>
        <mxCell id="PsXzmbZN0hnTAKAXfbtE-1" value="getNutrData()" style="endArrow=classic;html=1;rounded=0;" parent="1" source="tmLtH-D-rDOSetYklQbw-2" target="tmLtH-D-rDOSetYklQbw-3" edge="1">
          <mxGeometry x="-0.0296" y="10" width="50" height="50" relative="1" as="geometry">
            <mxPoint x="210" y="130" as="sourcePoint" />
            <mxPoint x="260" y="80" as="targetPoint" />
            <Array as="points">
              <mxPoint x="270" y="120" />
            </Array>
            <mxPoint as="offset" />
          </mxGeometry>
        </mxCell>
        <mxCell id="PsXzmbZN0hnTAKAXfbtE-2" value="retNutrData()" style="endArrow=classic;html=1;rounded=0;dashed=1;dashPattern=8 8;" parent="1" source="tmLtH-D-rDOSetYklQbw-3" target="tmLtH-D-rDOSetYklQbw-2" edge="1">
          <mxGeometry x="0.0296" y="-10" width="50" height="50" relative="1" as="geometry">
            <mxPoint x="240" y="230" as="sourcePoint" />
            <mxPoint x="290" y="180" as="targetPoint" />
            <Array as="points">
              <mxPoint x="290" y="160" />
            </Array>
            <mxPoint as="offset" />
          </mxGeometry>
        </mxCell>
        <mxCell id="PsXzmbZN0hnTAKAXfbtE-3" value="selectNutr()" style="endArrow=classic;html=1;rounded=0;" parent="1" source="tmLtH-D-rDOSetYklQbw-1" target="tmLtH-D-rDOSetYklQbw-2" edge="1">
          <mxGeometry x="-0.0276" y="10" width="50" height="50" relative="1" as="geometry">
            <mxPoint x="110" y="250" as="sourcePoint" />
            <mxPoint x="160" y="200" as="targetPoint" />
            <Array as="points">
              <mxPoint x="100" y="200" />
            </Array>
            <mxPoint x="1" as="offset" />
          </mxGeometry>
        </mxCell>
        <mxCell id="PsXzmbZN0hnTAKAXfbtE-4" value="checkAppointments()" style="endArrow=classic;html=1;rounded=0;" parent="1" source="tmLtH-D-rDOSetYklQbw-2" target="tmLtH-D-rDOSetYklQbw-5" edge="1">
          <mxGeometry x="-0.5236" y="10" width="50" height="50" relative="1" as="geometry">
            <mxPoint x="230" y="260" as="sourcePoint" />
            <mxPoint x="280" y="210" as="targetPoint" />
            <Array as="points">
              <mxPoint x="280" y="240" />
            </Array>
            <mxPoint as="offset" />
          </mxGeometry>
        </mxCell>
        <mxCell id="PsXzmbZN0hnTAKAXfbtE-5" value="showRatePage()" style="endArrow=classic;html=1;rounded=0;" parent="1" source="tmLtH-D-rDOSetYklQbw-5" target="tmLtH-D-rDOSetYklQbw-4" edge="1">
          <mxGeometry x="0.0733" y="10" width="50" height="50" relative="1" as="geometry">
            <mxPoint x="520" y="300" as="sourcePoint" />
            <mxPoint x="570" y="250" as="targetPoint" />
            <Array as="points">
              <mxPoint x="540" y="300" />
            </Array>
            <mxPoint x="1" as="offset" />
          </mxGeometry>
        </mxCell>
        <mxCell id="PsXzmbZN0hnTAKAXfbtE-6" value="showNutrList()" style="endArrow=classic;html=1;rounded=0;" parent="1" source="tmLtH-D-rDOSetYklQbw-5" target="tmLtH-D-rDOSetYklQbw-2" edge="1">
          <mxGeometry x="-0.4945" y="-10" width="50" height="50" relative="1" as="geometry">
            <mxPoint x="370" y="410" as="sourcePoint" />
            <mxPoint x="420" y="360" as="targetPoint" />
            <Array as="points">
              <mxPoint x="360" y="380" />
            </Array>
            <mxPoint x="1" as="offset" />
          </mxGeometry>
        </mxCell>
        <mxCell id="PsXzmbZN0hnTAKAXfbtE-8" value="" style="endArrow=none;dashed=1;html=1;rounded=0;exitX=0.002;exitY=0.5;exitDx=0;exitDy=0;exitPerimeter=0;entryX=0.998;entryY=0.5;entryDx=0;entryDy=0;entryPerimeter=0;strokeWidth=2;" parent="1" source="PsXzmbZN0hnTAKAXfbtE-7" target="PsXzmbZN0hnTAKAXfbtE-7" edge="1">
          <mxGeometry width="50" height="50" relative="1" as="geometry">
            <mxPoint x="220" y="340" as="sourcePoint" />
            <mxPoint x="270" y="290" as="targetPoint" />
          </mxGeometry>
        </mxCell>
        <mxCell id="PsXzmbZN0hnTAKAXfbtE-9" value="&lt;font style=&quot;font-size: 10px;&quot;&gt;User had an appointment with the nutritionist : Yes&lt;/font&gt;" style="text;html=1;strokeColor=none;fillColor=none;align=center;verticalAlign=middle;whiteSpace=wrap;rounded=0;" parent="1" vertex="1">
          <mxGeometry x="120" y="290" width="60" height="30" as="geometry" />
        </mxCell>
        <mxCell id="PsXzmbZN0hnTAKAXfbtE-10" value="&lt;font style=&quot;font-size: 10px;&quot;&gt;User had an appointment with the nutritionist : No&lt;/font&gt;" style="text;html=1;strokeColor=none;fillColor=none;align=center;verticalAlign=middle;whiteSpace=wrap;rounded=0;" parent="1" vertex="1">
          <mxGeometry x="110" y="370" width="60" height="30" as="geometry" />
        </mxCell>
        <mxCell id="PsXzmbZN0hnTAKAXfbtE-11" value="fillRateForm()" style="endArrow=classic;html=1;rounded=0;strokeWidth=1;fontSize=12;" parent="1" source="tmLtH-D-rDOSetYklQbw-1" target="tmLtH-D-rDOSetYklQbw-4" edge="1">
          <mxGeometry x="-0.7526" y="10" width="50" height="50" relative="1" as="geometry">
            <mxPoint x="90" y="510" as="sourcePoint" />
            <mxPoint x="140" y="460" as="targetPoint" />
            <Array as="points">
              <mxPoint x="260" y="480" />
            </Array>
            <mxPoint as="offset" />
          </mxGeometry>
        </mxCell>
        <mxCell id="PsXzmbZN0hnTAKAXfbtE-12" value="updateNutrRating()" style="endArrow=classic;html=1;rounded=0;strokeWidth=1;fontSize=12;" parent="1" edge="1">
          <mxGeometry x="-0.5207" y="-10" width="50" height="50" relative="1" as="geometry">
            <mxPoint x="609.5" y="559" as="sourcePoint" />
            <mxPoint x="319.5" y="559" as="targetPoint" />
            <mxPoint as="offset" />
          </mxGeometry>
        </mxCell>
        <mxCell id="PsXzmbZN0hnTAKAXfbtE-13" value="showRatePage()" style="endArrow=classic;html=1;rounded=0;strokeWidth=1;fontSize=12;" parent="1" edge="1">
          <mxGeometry y="50" width="50" height="50" relative="1" as="geometry">
            <mxPoint x="609.5" y="660" as="sourcePoint" />
            <mxPoint x="609.5" y="680" as="targetPoint" />
            <Array as="points">
              <mxPoint x="650" y="660" />
              <mxPoint x="650" y="680" />
            </Array>
            <mxPoint as="offset" />
          </mxGeometry>
        </mxCell>
        <mxCell id="PsXzmbZN0hnTAKAXfbtE-15" value="showErrorMessage()" style="endArrow=classic;html=1;rounded=0;strokeWidth=1;fontSize=12;" parent="1" edge="1">
          <mxGeometry y="61" width="50" height="50" relative="1" as="geometry">
            <mxPoint x="609.5" y="619" as="sourcePoint" />
            <mxPoint x="609.5" y="639" as="targetPoint" />
            <Array as="points">
              <mxPoint x="649" y="619" />
              <mxPoint x="649" y="639" />
            </Array>
            <mxPoint as="offset" />
          </mxGeometry>
        </mxCell>
        <mxCell id="PsXzmbZN0hnTAKAXfbtE-16" value="" style="endArrow=none;dashed=1;html=1;rounded=0;strokeWidth=2;fontSize=12;exitX=0;exitY=0.45;exitDx=0;exitDy=0;exitPerimeter=0;entryX=1.002;entryY=0.45;entryDx=0;entryDy=0;entryPerimeter=0;" parent="1" source="PsXzmbZN0hnTAKAXfbtE-14" target="PsXzmbZN0hnTAKAXfbtE-14" edge="1">
          <mxGeometry width="50" height="50" relative="1" as="geometry">
            <mxPoint x="380" y="630" as="sourcePoint" />
            <mxPoint x="430" y="580" as="targetPoint" />
          </mxGeometry>
        </mxCell>
        <mxCell id="PsXzmbZN0hnTAKAXfbtE-17" value="showSuccessMessage()" style="endArrow=classic;html=1;rounded=0;strokeWidth=1;fontSize=12;" parent="1" source="tmLtH-D-rDOSetYklQbw-4" target="tmLtH-D-rDOSetYklQbw-4" edge="1">
          <mxGeometry x="0.02" y="70" width="50" height="50" relative="1" as="geometry">
            <mxPoint x="610.5" y="519" as="sourcePoint" />
            <mxPoint x="610.5" y="539" as="targetPoint" />
            <Array as="points">
              <mxPoint x="650" y="519" />
              <mxPoint x="650" y="539" />
            </Array>
            <mxPoint as="offset" />
          </mxGeometry>
        </mxCell>
        <mxCell id="PsXzmbZN0hnTAKAXfbtE-18" value="Is the form details valid? : Yes" style="text;html=1;strokeColor=none;fillColor=none;align=center;verticalAlign=middle;whiteSpace=wrap;rounded=0;fontSize=12;" parent="1" vertex="1">
          <mxGeometry x="240" y="540" width="60" height="30" as="geometry" />
        </mxCell>
        <mxCell id="PsXzmbZN0hnTAKAXfbtE-20" value="Is the form details valid? :&lt;br&gt;No" style="text;html=1;strokeColor=none;fillColor=none;align=center;verticalAlign=middle;whiteSpace=wrap;rounded=0;fontSize=12;" parent="1" vertex="1">
          <mxGeometry x="240" y="630" width="60" height="30" as="geometry" />
        </mxCell>
        <mxCell id="myUPSxh2hrEcv8Bx-CGW-1" value="NutritionistSelectPage" style="rounded=0;whiteSpace=wrap;html=1;" vertex="1" parent="1">
          <mxGeometry x="125" y="40" width="120" height="40" as="geometry" />
        </mxCell>
        <mxCell id="myUPSxh2hrEcv8Bx-CGW-4" value="Nutritionist" style="rounded=0;whiteSpace=wrap;html=1;" vertex="1" parent="1">
          <mxGeometry x="260" y="40" width="120" height="40" as="geometry" />
        </mxCell>
        <mxCell id="myUPSxh2hrEcv8Bx-CGW-5" value="MyAppointment" style="rounded=0;whiteSpace=wrap;html=1;" vertex="1" parent="1">
          <mxGeometry x="400" y="40" width="120" height="40" as="geometry" />
        </mxCell>
        <mxCell id="myUPSxh2hrEcv8Bx-CGW-6" value="ReviewPage" style="rounded=0;whiteSpace=wrap;html=1;" vertex="1" parent="1">
          <mxGeometry x="550" y="40" width="120" height="40" as="geometry" />
        </mxCell>
        <mxCell id="myUPSxh2hrEcv8Bx-CGW-7" value="User" style="text;html=1;align=center;verticalAlign=middle;resizable=0;points=[];autosize=1;strokeColor=none;fillColor=none;" vertex="1" parent="1">
          <mxGeometry x="15" y="8" width="50" height="30" as="geometry" />
        </mxCell>
      </root>
    </mxGraphModel>
  </diagram>
</mxfile>
